<?xml version="1.0" encoding="utf-8"?>
<!-- Generator: Adobe Illustrator 16.0.0, SVG Export Plug-In . SVG Version: 6.00 Build 0)  -->
<!DOCTYPE svg PUBLIC "-//W3C//DTD SVG 1.1//EN" "http://www.w3.org/Graphics/SVG/1.1/DTD/svg11.dtd">
<svg version="1.1" id="Layer_1" xmlns="http://www.w3.org/2000/svg" xmlns:xlink="http://www.w3.org/1999/xlink" x="0px" y="0px"
	 width="65px" height="65px" viewBox="0 0 65 65" enable-background="new 0 0 65 65" xml:space="preserve">
<path fill="#282827" d="M64.259,34.363C41.029,59.725,20.667,56.847,0.945,34.438C0.032,33.418-0.51,32.064,0.7,30.583
	C21.848,6.85,42.673,6.439,64.259,30.912C65.186,32.011,65.307,33.154,64.259,34.363L64.259,34.363z M32.598,23.882
	c-1.063,0-2.081,0.192-3.02,0.543c1.784,0.463,3.103,2.086,3.103,4.017c0,2.292-1.858,4.149-4.149,4.149
	c-1.93,0-3.553-1.318-4.016-3.104c-0.352,0.939-0.544,1.958-0.544,3.021c0,4.765,3.862,8.628,8.627,8.628
	c4.766,0,8.629-3.863,8.629-8.628C41.227,27.744,37.363,23.882,32.598,23.882L32.598,23.882z M49.842,40.301
	c3.245-2.215,6.093-4.988,8.792-7.971c-2.63-2.843-5.533-5.375-8.711-7.56C52.12,29.913,51.699,35.049,49.842,40.301L49.842,40.301z
	 M32.598,19.198c-7.352,0-13.312,5.959-13.312,13.312c0,7.35,5.96,13.312,13.312,13.312C39.95,45.821,45.91,39.86,45.91,32.511
	C45.91,25.158,39.95,19.198,32.598,19.198L32.598,19.198z M15.246,40.301c-1.857-5.252-2.278-10.389-0.081-15.53
	c-3.178,2.184-6.081,4.716-8.71,7.56C9.153,35.312,12,38.086,15.246,40.301z"/>
</svg>
