<?xml version="1.0" encoding="utf-8"?>
<!-- Generator: Adobe Illustrator 16.0.0, SVG Export Plug-In . SVG Version: 6.00 Build 0)  -->
<!DOCTYPE svg PUBLIC "-//W3C//DTD SVG 1.1//EN" "http://www.w3.org/Graphics/SVG/1.1/DTD/svg11.dtd">
<svg version="1.1" id="Layer_1" xmlns="http://www.w3.org/2000/svg" xmlns:xlink="http://www.w3.org/1999/xlink" x="0px" y="0px"
	 width="65px" height="65px" viewBox="0 0 65 65" enable-background="new 0 0 65 65" xml:space="preserve">
<path fill-rule="evenodd" clip-rule="evenodd" fill="#282827" d="M36.231,61.437l-0.014-0.004c-0.422-0.113-1.167-0.162-2.49-0.162
	c-0.491,0-1.017,0.007-1.528,0.014c-0.403,0.004-0.805,0.01-1.186,0.012c-1.637,0.007-3.674,0.017-3.804,1.548
	c-0.042,0.496,0.102,0.899,0.426,1.199c0.592,0.548,1.637,0.657,3.133,0.657c0.263,0,0.532-0.003,0.806-0.007
	c0.281-0.003,0.565-0.006,0.852-0.006c0.324,0,0.666,0.007,0.995,0.014c0.335,0.007,0.682,0.016,1.011,0.014
	c1.057,0,3.24-0.002,3.351-1.58C37.871,61.878,36.961,61.634,36.231,61.437L36.231,61.437z M43.766,32.085
	c-0.18,0.239-0.361,0.478-0.54,0.716c-0.314,0.417-0.631,0.831-0.945,1.243c-2.836,3.706-5.518,7.213-6.146,12.546H28.85
	c-0.781-5.639-3.515-9.233-6.405-13.036c-0.225-0.297-0.451-0.594-0.678-0.895l-0.387-0.51c-2.252-2.971-4.803-6.336-5.169-10.271
	c-0.579-6.214,2.296-10.451,4.81-12.911c3.211-3.145,7.086-4.738,11.518-4.738c0.505,0,1.025,0.021,1.545,0.064
	c7.818,0.639,14.137,7.016,14.697,14.834C49.197,24.931,46.436,28.568,43.766,32.085L43.766,32.085z M47.538,6.966
	c-1.304-1.389-3.118-3.15-5.611-4.455c-2.411-1.262-4.821-1.908-8.059-2.162c-0.543-0.043-1.09-0.063-1.626-0.063
	c-6.699,0-11.35,3.245-14.072,5.966c-3.043,3.043-6.562,8.188-6.043,15.414c0.381,5.338,3.438,9.533,5.896,12.904l0.104,0.145
	c0.438,0.602,0.895,1.19,1.377,1.814c1.52,1.961,3.089,3.989,4.217,6.566l0.13,0.293c0.461,1.047,1.034,2.348,0.965,3.018
	c-0.05,0.479-0.256,0.713-0.495,0.983c-0.332,0.376-0.746,0.844-0.48,1.847c0.346,1.302,1.984,1.302,3.885,1.302h9.898l0,0
	c1.565,0,3.186,0,3.53-1.302c0.26-0.98-0.192-1.529-0.556-1.969c-0.205-0.25-0.383-0.466-0.421-0.736
	c-0.186-1.308,1.227-4.276,2.617-6.482c0.878-1.392,1.82-2.601,2.732-3.77c0.421-0.541,0.82-1.052,1.198-1.562
	c0.2-0.27,0.401-0.54,0.603-0.811c2.526-3.387,5.139-6.889,5.54-12.096C53.434,14.444,49.771,9.348,47.538,6.966L47.538,6.966z
	 M36.567,27.052h-0.039c-0.986,0-2.037,1.157-2.882,2.088c-0.19,0.209-0.37,0.408-0.518,0.555c-0.209,0.209-0.388,0.436-0.534,0.616
	l-0.066,0.084c-0.125-0.132-0.274-0.304-0.364-0.409c-0.109-0.125-0.196-0.227-0.263-0.291c-0.106-0.107-0.254-0.264-0.424-0.447
	c-1.124-1.2-2.111-2.195-2.82-2.195h-0.014c-0.516,0.01-1.119,0.332-1.271,0.926c-0.266,1.043,0.926,2.057,1.638,2.661
	c0.128,0.108,0.237,0.202,0.297,0.263c0.333,0.331,0.58,0.574,0.809,0.799c0.371,0.361,0.694,0.678,1.239,1.243v3.998
	c0,0.196-0.012,0.435-0.022,0.687c-0.058,1.293-0.139,3.065,1.12,3.123l0.054,0.002c0.284,0,0.537-0.108,0.73-0.312
	c0.528-0.554,0.521-1.663,0.46-2.947c-0.011-0.22-0.02-0.41-0.02-0.553c0-0.349-0.028-0.773-0.059-1.224
	c-0.062-0.926-0.14-2.078,0.043-2.746c0.048-0.171,0.39-0.465,0.639-0.681c0.097-0.084,0.193-0.167,0.282-0.249
	c0.787-0.723,1.358-1.271,2.186-2.097l0.031-0.034c0.497-0.494,0.943-0.979,0.96-1.467c0.013-0.369-0.124-0.736-0.374-1.003
	C37.161,27.203,36.863,27.062,36.567,27.052L36.567,27.052z M38.449,52.179c-0.637-0.135-1.556-0.194-2.981-0.194
	c-0.738,0-1.538,0.016-2.313,0.03c-0.766,0.017-1.559,0.033-2.28,0.033c-0.316,0-0.647-0.007-0.995-0.012
	c-0.358-0.006-0.728-0.014-1.093-0.014c-1.293,0-3.985,0-4.113,1.697c-0.036,0.465,0.114,0.854,0.447,1.16
	c0.739,0.679,2.227,0.77,3.584,0.77c0.63,0,1.294-0.023,1.935-0.046c0.632-0.022,1.229-0.044,1.787-0.044
	c0.401,0,0.855,0.002,1.333,0.004c1.042,0.002,2.199,0.006,3.183-0.004c1.674-0.015,3.256-0.029,3.377-1.549
	C40.433,52.599,39.285,52.356,38.449,52.179L38.449,52.179z M38.449,56.992c-0.637-0.135-1.556-0.194-2.981-0.194
	c-0.738,0-1.538,0.016-2.313,0.031c-0.766,0.016-1.559,0.031-2.28,0.031c-0.316,0-0.647-0.005-0.995-0.01
	c-0.358-0.008-0.728-0.014-1.093-0.014c-1.293,0-3.985,0-4.113,1.696c-0.036,0.465,0.114,0.854,0.447,1.16
	c0.739,0.679,2.227,0.771,3.584,0.771c0.63,0,1.294-0.023,1.935-0.047c0.632-0.021,1.229-0.043,1.787-0.043
	c0.401,0,0.855,0.002,1.333,0.003c1.042,0.003,2.199,0.006,3.183-0.003c1.674-0.015,3.256-0.029,3.377-1.549
	C40.433,57.413,39.285,57.171,38.449,56.992z"/>
</svg>
