<?xml version="1.0" encoding="utf-8"?>
<!-- Generator: Adobe Illustrator 16.0.0, SVG Export Plug-In . SVG Version: 6.00 Build 0)  -->
<!DOCTYPE svg PUBLIC "-//W3C//DTD SVG 1.1//EN" "http://www.w3.org/Graphics/SVG/1.1/DTD/svg11.dtd">
<svg version="1.1" id="Layer_1" xmlns="http://www.w3.org/2000/svg" xmlns:xlink="http://www.w3.org/1999/xlink" x="0px" y="0px"
	 width="65px" height="65px" viewBox="0 0 65 65" enable-background="new 0 0 65 65" xml:space="preserve">
<path fill-rule="evenodd" clip-rule="evenodd" fill="#282827" d="M15.897,14.068H26.74c1.294,0,2.353,1.059,2.353,2.354v10.843
	c0,1.293-1.059,2.353-2.353,2.353H15.897c-1.294,0-2.354-1.06-2.354-2.353V16.422C13.544,15.127,14.604,14.068,15.897,14.068
	L15.897,14.068z M32.5,0.527c-8.829,0-16.822,3.579-22.607,9.364C4.105,15.678,0.527,23.671,0.527,32.5s3.579,16.822,9.365,22.608
	c5.785,5.785,13.778,9.364,22.607,9.364s16.823-3.579,22.608-9.364c5.785-5.786,9.364-13.779,9.364-22.608
	s-3.579-16.822-9.364-22.608C49.323,4.106,41.329,0.527,32.5,0.527L32.5,0.527z M53.057,11.943
	C47.796,6.683,40.528,3.429,32.5,3.429c-8.027,0-15.297,3.254-20.557,8.515C6.684,17.203,3.43,24.472,3.43,32.5
	c0,8.027,3.254,15.296,8.514,20.557c5.26,5.26,12.529,8.515,20.557,8.515c8.028,0,15.296-3.255,20.557-8.515
	c5.261-5.261,8.515-12.529,8.515-20.557C61.571,24.472,58.317,17.203,53.057,11.943L53.057,11.943z M38.26,35.383h10.844
	c1.294,0,2.353,1.059,2.353,2.352v10.844c0,1.295-1.059,2.354-2.353,2.354H38.26c-1.294,0-2.352-1.059-2.352-2.354V37.734
	C35.908,36.441,36.966,35.383,38.26,35.383L38.26,35.383z M15.897,35.383H26.74c1.294,0,2.353,1.059,2.353,2.352v10.844
	c0,1.295-1.059,2.354-2.353,2.354H15.897c-1.294,0-2.354-1.059-2.354-2.354V37.734C13.544,36.441,14.604,35.383,15.897,35.383
	L15.897,35.383z M38.26,14.068h10.844c1.294,0,2.353,1.059,2.353,2.354v10.843c0,1.293-1.059,2.353-2.353,2.353H38.26
	c-1.294,0-2.352-1.06-2.352-2.353V16.422C35.908,15.127,36.966,14.068,38.26,14.068z"/>
</svg>
