<?xml version="1.0" encoding="utf-8"?>
<!-- Generator: Adobe Illustrator 16.0.0, SVG Export Plug-In . SVG Version: 6.00 Build 0)  -->
<!DOCTYPE svg PUBLIC "-//W3C//DTD SVG 1.1//EN" "http://www.w3.org/Graphics/SVG/1.1/DTD/svg11.dtd">
<svg version="1.1" id="Layer_1" xmlns="http://www.w3.org/2000/svg" xmlns:xlink="http://www.w3.org/1999/xlink" x="0px" y="0px"
	 width="65px" height="65px" viewBox="0 0 65 65" enable-background="new 0 0 65 65" xml:space="preserve">
<path fill-rule="evenodd" clip-rule="evenodd" fill="#282827" d="M32.5,23.9c4.75,0,8.6,3.851,8.6,8.6c0,4.75-3.85,8.6-8.6,8.6
	c-4.749,0-8.6-3.85-8.6-8.6C23.9,27.75,27.751,23.9,32.5,23.9L32.5,23.9z M23.493,42.808c-1.375-1.374-2.445-2.982-3.164-4.722
	c-0.723-1.745-1.106-3.641-1.106-5.586c0-1.944,0.383-3.841,1.105-5.586c0.724-1.749,1.793-3.359,3.164-4.73
	c0.852-0.857,0.848-2.241-0.008-3.093c-0.857-0.853-2.243-0.849-3.095,0.008c-1.774,1.775-3.161,3.87-4.106,6.152
	c-0.947,2.286-1.448,4.747-1.448,7.249c0,2.502,0.501,4.964,1.448,7.25c0.949,2.292,2.337,4.39,4.107,6.161
	c0.856,0.856,2.246,0.856,3.103,0C24.349,45.054,24.349,43.665,23.493,42.808L23.493,42.808z M46.698,17.329
	c-0.856-0.856-0.856-2.247,0-3.104c0.856-0.855,2.246-0.855,3.103,0c2.415,2.416,4.307,5.273,5.599,8.394
	c1.288,3.111,1.971,6.466,1.971,9.881s-0.683,6.769-1.971,9.882c-1.292,3.119-3.185,5.978-5.599,8.394
	c-0.856,0.855-2.246,0.855-3.103,0c-0.856-0.857-0.856-2.247,0-3.103c2.02-2.02,3.593-4.389,4.654-6.953
	c1.065-2.573,1.629-5.362,1.629-8.22c0-2.857-0.563-5.647-1.629-8.219C50.292,21.716,48.718,19.347,46.698,17.329L46.698,17.329z
	 M51.998,11.703c2.767,2.766,4.921,6.013,6.38,9.534c1.461,3.528,2.234,7.352,2.234,11.263c0,3.913-0.773,7.736-2.234,11.263
	c-1.459,3.521-3.614,6.769-6.38,9.535c-0.856,0.856-0.856,2.246,0,3.103s2.245,0.856,3.103,0c3.161-3.162,5.635-6.899,7.322-10.975
	C64.107,41.357,65,36.97,65,32.5c0-4.469-0.893-8.858-2.576-12.926c-1.688-4.076-4.162-7.812-7.323-10.974
	c-0.857-0.856-2.246-0.856-3.103,0C51.142,9.457,51.142,10.847,51.998,11.703L51.998,11.703z M13.002,53.298
	c0.856,0.856,0.856,2.246,0,3.103c-0.856,0.856-2.246,0.856-3.103,0c-3.161-3.162-5.634-6.899-7.323-10.975
	C0.891,41.357,0,36.97,0,32.5c0-4.469,0.891-8.858,2.577-12.926c1.688-4.076,4.162-7.813,7.323-10.975
	c0.857-0.856,2.246-0.856,3.103,0c0.856,0.857,0.856,2.247,0,3.103c-2.766,2.766-4.921,6.013-6.379,9.535
	C5.161,24.765,4.388,28.588,4.388,32.5c0,3.913,0.773,7.736,2.235,11.263C8.081,47.284,10.236,50.531,13.002,53.298L13.002,53.298z
	 M18.304,47.673c0.856,0.855,0.856,2.245,0,3.103c-0.857,0.855-2.246,0.855-3.104,0c-2.414-2.415-4.307-5.274-5.598-8.394
	C8.313,39.269,7.63,35.914,7.63,32.5s0.683-6.77,1.972-9.882c1.292-3.119,3.183-5.979,5.598-8.393c0.856-0.857,2.246-0.857,3.103,0
	c0.856,0.856,0.856,2.245,0,3.103c-2.021,2.02-3.593,4.387-4.656,6.953c-1.065,2.572-1.629,5.361-1.629,8.219
	c0,2.858,0.564,5.647,1.629,8.22C14.709,43.284,16.283,45.653,18.304,47.673L18.304,47.673z M41.508,22.183
	c1.372,1.372,2.439,2.982,3.164,4.73c0.722,1.745,1.104,3.642,1.104,5.586c0,1.946-0.383,3.841-1.104,5.586
	c-0.725,1.747-1.792,3.359-3.164,4.729c-0.852,0.857-0.848,2.243,0.009,3.095s2.242,0.848,3.093-0.009
	c1.775-1.774,3.162-3.869,4.107-6.152c0.948-2.285,1.448-4.747,1.448-7.25c0-2.502-0.5-4.963-1.448-7.249
	c-0.945-2.283-2.332-4.377-4.107-6.152c-0.851-0.857-2.236-0.861-3.093-0.008C40.66,19.942,40.656,21.326,41.508,22.183z"/>
</svg>
