<?xml version="1.0" encoding="utf-8"?>
<!-- Generator: Adobe Illustrator 16.0.0, SVG Export Plug-In . SVG Version: 6.00 Build 0)  -->
<!DOCTYPE svg PUBLIC "-//W3C//DTD SVG 1.1//EN" "http://www.w3.org/Graphics/SVG/1.1/DTD/svg11.dtd">
<svg version="1.1" id="Layer_1" xmlns="http://www.w3.org/2000/svg" xmlns:xlink="http://www.w3.org/1999/xlink" x="0px" y="0px"
	 width="65px" height="65px" viewBox="0 0 65 65" enable-background="new 0 0 65 65" xml:space="preserve">
<path fill-rule="evenodd" clip-rule="evenodd" fill="#282827" d="M63.824,38.016l-18.927-17.91v8.955H31.377v0.211
	c-1.023-0.521-2.131-0.901-3.304-1.094c0.438-0.348,0.891-0.66,1.295-1.065c5.513-5.528,5.513-14.509,0-20.04
	c-2.755-2.766-6.374-4.133-9.985-4.133c-3.613,0-7.232,1.367-9.987,4.133c-5.512,5.531-5.512,14.512,0,20.04
	c0.403,0.405,0.858,0.718,1.296,1.065c-5.393,0.884-9.516,5.542-9.516,11.201V50.66c0,6.291,5.071,11.4,11.339,11.4H26.25
	c6.267-0.004,11.338-5.109,11.338-11.4v-3.688h7.31v8.953L63.824,38.016z"/>
</svg>
