<?xml version="1.0" encoding="utf-8"?>
<!-- Generator: Adobe Illustrator 16.0.0, SVG Export Plug-In . SVG Version: 6.00 Build 0)  -->
<!DOCTYPE svg PUBLIC "-//W3C//DTD SVG 1.1//EN" "http://www.w3.org/Graphics/SVG/1.1/DTD/svg11.dtd">
<svg version="1.1" id="Layer_1" xmlns="http://www.w3.org/2000/svg" xmlns:xlink="http://www.w3.org/1999/xlink" x="0px" y="0px"
	 width="65px" height="65px" viewBox="0 0 65 65" enable-background="new 0 0 65 65" xml:space="preserve">
<path fill-rule="evenodd" clip-rule="evenodd" fill="#282827" d="M51.939,28.18c0.438-0.35,0.891-0.661,1.295-1.066
	c5.513-5.528,5.513-14.508,0-20.041c-2.755-2.764-6.374-4.133-9.985-4.133c-3.613,0-7.232,1.369-9.987,4.133
	c-5.512,5.533-5.512,14.513,0,20.041c0.403,0.405,0.858,0.717,1.296,1.066c-1.142,0.186-2.221,0.551-3.221,1.051L17.065,15.726
	v8.954H3.546v17.911h13.52v8.955l7.977-7.549v6.664c0,6.289,5.071,11.399,11.339,11.399h13.735
	c6.267-0.003,11.338-5.11,11.338-11.399V39.379C61.454,33.723,57.33,29.062,51.939,28.18z"/>
</svg>
