<?xml version="1.0" encoding="utf-8"?>
<!-- Generator: Adobe Illustrator 16.0.0, SVG Export Plug-In . SVG Version: 6.00 Build 0)  -->
<!DOCTYPE svg PUBLIC "-//W3C//DTD SVG 1.1//EN" "http://www.w3.org/Graphics/SVG/1.1/DTD/svg11.dtd">
<svg version="1.1" id="Layer_1" xmlns="http://www.w3.org/2000/svg" xmlns:xlink="http://www.w3.org/1999/xlink" x="0px" y="0px"
	 width="65px" height="65px" viewBox="0 0 65 65" enable-background="new 0 0 65 65" xml:space="preserve">
<path fill-rule="evenodd" clip-rule="evenodd" fill="#282827" d="M16.754,30.009c0,1.294,1.06,2.354,2.354,2.354h10.844
	c1.294,0,2.353-1.06,2.353-2.354V19.167c0-1.294-1.059-2.354-2.353-2.354H19.107c-1.294,0-2.354,1.06-2.354,2.354V30.009z"/>
<path fill-rule="evenodd" clip-rule="evenodd" fill="#282827" d="M32.671,46.051c0,1.294,1.059,2.354,2.353,2.354h10.844
	c1.294,0,2.353-1.06,2.353-2.354V35.208c0-1.294-1.059-2.353-2.353-2.353H35.024c-1.294,0-2.353,1.059-2.353,2.353V46.051z"/>
<path fill-rule="evenodd" clip-rule="evenodd" fill="#282827" d="M16.387,13.968c0,1.294-1.059,2.354-2.353,2.354H3.19
	c-1.294,0-2.353-1.06-2.353-2.354V3.125c0-1.294,1.059-2.354,2.353-2.354h10.844c1.294,0,2.353,1.06,2.353,2.354V13.968z"/>
<path fill-rule="evenodd" clip-rule="evenodd" fill="#282827" d="M64.137,62.093c0,1.294-1.059,2.354-2.354,2.354H50.939
	c-1.293,0-2.352-1.06-2.352-2.354V51.25c0-1.294,1.059-2.354,2.352-2.354h10.844c1.295,0,2.354,1.06,2.354,2.354V62.093z"/>
<g>
	<g>
		<path fill="none" stroke="#282827" stroke-width="2" stroke-miterlimit="10" d="M16.022,6.921c3.689,0,6.862,2.211,8.265,5.38"/>
		<g>
			<polygon fill="#282827" points="21.467,12.215 25.057,15.957 26.503,10.977 			"/>
		</g>
	</g>
</g>
<g>
	<g>
		<path fill="none" stroke="#282827" stroke-width="2" stroke-miterlimit="10" d="M32.021,22.921c3.689,0,6.862,2.211,8.266,5.381"
			/>
		<g>
			<polygon fill="#282827" points="37.468,28.215 41.057,31.957 42.503,26.978 			"/>
		</g>
	</g>
</g>
<g>
	<g>
		<path fill="none" stroke="#282827" stroke-width="2" stroke-miterlimit="10" d="M48.021,38.922c3.689,0,6.862,2.211,8.266,5.381"
			/>
		<g>
			<polygon fill="#282827" points="53.467,44.215 57.057,47.957 58.503,42.978 			"/>
		</g>
	</g>
</g>
</svg>
